# xmcd
#
# Track frame offsets:
# 150
# 21415
# 38474
# 55929
# 72546
# 90276
# 110358
# 131832
# 154585
# 168863
# 188598
#
# Disc length: 2792 seconds
#
# Revision: 1
# Processed by: cddbd v1.5.2PL0 Copyright (c) Steve Scherf et al.
# Submitted via: CedeCatalogueitor 2.6.0.6 http://personales.ya.com/cdcatalogueitor
#
DISCID=850ae60b
DTITLE=Chin Up Chin Up - This Homess Contride Anything
DYEAR=1900
DGENRE=
TTITLE0=This Horness Contride Anything
TTITLE1=Water Planes In Snow
TTITLE2=We've Got To Keep Running
TTITLE3=Islands Sink
TTITLE4=Mansioned
TTITLE5=I Need A Friend With A Boat
TTITLE6=Blankets Like Beavers
TTITLE7=Landlocked Lifeguards
TTITLE8=Stolen Mountains
TTITLE9=Trophies For Hire
TTITLE10=Landlocked Lifeguards Remix By J. Clark(Pretty GIrls Make Graves)
EXTD=
EXTT0=
EXTT1=
EXTT2=
EXTT3=
EXTT4=
EXTT5=
EXTT6=
EXTT7=
EXTT8=
EXTT9=
EXTT10=
PLAYORDER=
